<svg xmlns="http://www.w3.org/2000/svg" enable-background="new 0 0 256 256" viewBox="0 0 256 256" id="blog">
  <path fill="#fff" d="M214.516,59.401V226.04c0,8.025-6.5,14.525-14.525,14.525H56.011
			c-8.025,0-14.525-6.5-14.525-14.525V59.401H214.516z"></path>
  <rect width="143.981" height="152.112" x="56.01" y="73.927" fill="#fdc140"></rect>
  <path fill="#fff" d="M214.512,59.402V29.948c0-8.022-6.503-14.525-14.525-14.525H56.014
			c-8.022,0-14.525,6.503-14.525,14.525v29.454H214.512z"></path>
  <path fill="#fff" d="M67.877 37.412c0 2.946-2.387 5.333-5.333 5.333-2.946 0-5.37-2.387-5.37-5.333 0-2.946 2.424-5.333 5.37-5.333C65.49 32.079 67.877 34.466 67.877 37.412zM89.831 37.412c0 2.946-2.387 5.333-5.333 5.333-2.946 0-5.37-2.387-5.37-5.333 0-2.946 2.424-5.333 5.37-5.333C87.444 32.079 89.831 34.466 89.831 37.412zM111.786 37.412c0 2.946-2.387 5.333-5.333 5.333-2.946 0-5.37-2.387-5.37-5.333 0-2.946 2.424-5.333 5.37-5.333C109.399 32.079 111.786 34.466 111.786 37.412z"></path>
  <rect width="68.358" height="65.642" x="59.642" y="84.341" fill="#fff"></rect>
  <path d="M199.987,12.706H56.013c-9.511,0-17.248,7.738-17.248,17.248c-0.001,34.196-0.003,180.017-0.004,196.091
			c0,9.511,7.738,17.248,17.248,17.248H199.99c9.511,0,17.248-7.738,17.248-17.248c0-16.075-0.003-161.896-0.004-196.091
			C217.235,20.444,209.498,12.706,199.987,12.706z M44.212,29.954c0-6.507,5.294-11.802,11.802-11.802h143.974
			c6.507,0,11.802,5.294,11.802,11.802v26.731H44.212V29.954z M211.792,226.046c0,6.507-5.294,11.802-11.802,11.802H56.01
			c-6.507,0-11.802-5.294-11.802-11.802V62.132h167.584V226.046z"></path>
  <path d="M62.545 29.362c-4.465 0-8.096 3.614-8.096 8.057s3.631 8.057 8.096 8.057c4.44 0 8.053-3.614 8.053-8.057S66.985 29.362 62.545 29.362zM62.545 40.029c-1.461 0-2.649-1.17-2.649-2.61 0-1.44 1.188-2.61 2.649-2.61 1.436 0 2.606 1.17 2.606 2.61C65.152 38.859 63.981 40.029 62.545 40.029zM84.499 29.362c-4.465 0-8.096 3.614-8.096 8.057s3.631 8.057 8.096 8.057c4.443 0 8.057-3.614 8.057-8.057S88.943 29.362 84.499 29.362zM84.499 40.029c-1.461 0-2.649-1.17-2.649-2.61 0-1.44 1.188-2.61 2.649-2.61 1.44 0 2.61 1.17 2.61 2.61C87.109 38.859 85.939 40.029 84.499 40.029zM106.454 29.362c-4.465 0-8.096 3.614-8.096 8.057s3.631 8.057 8.096 8.057c4.443 0 8.057-3.614 8.057-8.057S110.897 29.362 106.454 29.362zM106.454 40.029c-1.461 0-2.649-1.17-2.649-2.61 0-1.44 1.188-2.61 2.649-2.61 1.44 0 2.61 1.17 2.61 2.61C109.064 38.859 107.893 40.029 106.454 40.029zM59.641 218.347h46.795c1.504 0 2.723-1.22 2.723-2.723s-1.22-2.723-2.723-2.723H59.641c-1.504 0-2.723 1.22-2.723 2.723S58.137 218.347 59.641 218.347zM59.641 196.467h136.718c1.504 0 2.723-1.22 2.723-2.723 0-1.504-1.22-2.723-2.723-2.723H59.641c-1.504 0-2.723 1.22-2.723 2.723C56.917 195.247 58.137 196.467 59.641 196.467zM59.641 174.588h136.718c1.504 0 2.723-1.22 2.723-2.723 0-1.504-1.22-2.723-2.723-2.723H59.641c-1.504 0-2.723 1.22-2.723 2.723C56.917 173.368 58.137 174.588 59.641 174.588zM149.841 152.708h46.518c1.504 0 2.723-1.22 2.723-2.723 0-1.504-1.22-2.723-2.723-2.723h-46.518c-1.504 0-2.723 1.22-2.723 2.723C147.117 151.488 148.337 152.708 149.841 152.708zM149.841 130.825h46.518c1.504 0 2.723-1.22 2.723-2.723 0-1.504-1.22-2.723-2.723-2.723h-46.518c-1.504 0-2.723 1.22-2.723 2.723C147.117 129.605 148.337 130.825 149.841 130.825zM149.841 108.945h46.518c1.504 0 2.723-1.22 2.723-2.723 0-1.504-1.22-2.723-2.723-2.723h-46.518c-1.504 0-2.723 1.22-2.723 2.723C147.117 107.725 148.337 108.945 149.841 108.945zM149.841 87.065h46.518c1.504 0 2.723-1.22 2.723-2.723 0-1.504-1.22-2.723-2.723-2.723h-46.518c-1.504 0-2.723 1.22-2.723 2.723C147.117 85.845 148.337 87.065 149.841 87.065zM59.641 152.708H128c1.543 0 2.723-1.286 2.723-2.723V84.342c0-1.356-1.214-2.706-2.702-2.719-.008 0-.014-.004-.022-.004-.39 0-68.811.008-68.382.005-1.446.012-2.7 1.336-2.7 2.719v65.643C56.917 151.42 58.092 152.708 59.641 152.708zM66.409 147.261l27.411-26.322 27.411 26.322H66.409zM125.277 143.593l-27.524-26.43 27.524-26.43V143.593zM121.232 87.065L93.82 113.387 66.409 87.065H121.232zM62.364 90.733l27.524 26.43-27.524 26.43V90.733z"></path>
</svg>
