<?xml version="1.0" encoding="UTF-8" standalone="no"?>
<!-- Created with Inkscape (http://www.inkscape.org/) -->

<svg
   width="178mm"
   height="202mm"
   viewBox="0 0 178 202"
   version="1.1"
   id="svg1"
   xml:space="preserve"
   inkscape:version="1.4 (86a8ad7, 2024-10-11)"
   sodipodi:docname="dibujo.svg"
   xmlns:inkscape="http://www.inkscape.org/namespaces/inkscape"
   xmlns:sodipodi="http://sodipodi.sourceforge.net/DTD/sodipodi-0.dtd"
   xmlns="http://www.w3.org/2000/svg"
   xmlns:svg="http://www.w3.org/2000/svg"><sodipodi:namedview
     id="namedview1"
     pagecolor="#ffffff"
     bordercolor="#000000"
     borderopacity="0.25"
     inkscape:showpageshadow="2"
     inkscape:pageopacity="0.0"
     inkscape:pagecheckerboard="0"
     inkscape:deskcolor="#d1d1d1"
     inkscape:document-units="mm"
     inkscape:zoom="0.4926417"
     inkscape:cx="254.74904"
     inkscape:cy="250.6893"
     inkscape:window-width="1366"
     inkscape:window-height="697"
     inkscape:window-x="-8"
     inkscape:window-y="-8"
     inkscape:window-maximized="1"
     inkscape:current-layer="svg1" /><defs
     id="defs1" /><rect
     style="fill:#ffffff;fill-opacity:1;stroke:#11426e;stroke-width:0.4"
     id="rect6"
     width="143.172"
     height="116.20846"
     x="25.954416"
     y="45.100033"
     ry="0.9375478" /><g
     inkscape:label="Capa 1"
     inkscape:groupmode="layer"
     id="layer1"><g
       id="g1"
       transform="matrix(0.26458333,0,0,0.26458333,-30.427082,12.964585)"><path
         d="m 331.46229,212.40106 h 30 l 16,3 13,3 2,-4 7,1 19,11 5,4 -1,6 -5,-1 -13,-8 -7,-3 -2,21 -3,24 v 23 l 4,11 7,14 11,16 13,16 11,14 12,16 9,15 8,16 5,14 4,12 8,-20 12,-22 8,-12 12,-16 14,-17 11,-14 10,-14 8,-14 5,-12 2,-7 v -23 l -4,-36 v -5 l -12,5 -15,8 h -4 l -1,-5 14,-9 16,-8 7,-1 2,3 2,16 1,5 2,23 v 31 l -6,16 -7,14 -12,17 -9,11 -13,16 -8,10 -13,18 -8,14 -9,17 -9,22 h -8 l -2,-2 -6,-20 -8,-19 -9,-16 -8,-11 -10,-13 -12,-15 -10,-13 -7,-10 -8,-13 -6,-13 -2,-6 v -31 l 3,-26 1,-14 -10,-2 -15,-3 -8,-1 h -19 l -7,1 -5,4 -2,4 v 185 l 7,-4 6,-1 h 42 l 23,3 18,5 16,6 15,8 12,11 1,5 -4,3 1,7 9,-3 h 15 l 5,2 h 4 l 1,-5 -4,-4 2,-5 7,-7 15,-10 17,-7 20,-6 19,-3 h 45 l 9,1 6,3 -1,-185 -4,-5 -7,-3 h -25 l -18,4 h -3 l -1,-6 9,-3 11,-2 h 30 l 8,4 6,7 3,6 v 11 h 15 l 8,8 7,8 1,1 1,163 v 41 l -2,1 h -18 l -30,-1 -16,-1 h -43 l -18,3 -13,4 -10,6 -12,11 -9,6 -13,5 -4,1 h -13 l -10,-3 -9,-5 -10,-9 -13,-10 -11,-4 -12,-3 -14,-2 h -46 l -42,2 h -19 l -2,-2 v -47 l 1,-59 1,-97 7,-7 6,-8 h 2 v -2 l 16,-1 2,-13 5,-8 5,-4 z"
         fill="#1e4e7d"
         id="path2" /><path
         d="m 299.46229,247.40106 h 14 v 181 l -1,7 1,1 h 30 l 17,-1 4,-1 h 45 l 16,3 16,7 8,7 5,6 3,5 h 6 l 7,-3 h 10 l 9,3 6,-1 5,-9 10,-8 11,-5 18,-4 10,-1 h 30 l 29,2 5,1 h 23 l 3,-2 -2,-9 v -179 h 14 l 7,9 4,4 1,115 v 80 h -23 l -27,-1 h -54 l -15,2 -16,5 -13,7 -14,13 -16,8 -4,1 h -11 l -10,-3 -11,-7 -11,-10 -11,-7 -10,-4 -12,-3 -16,-2 h -53 l -21,1 h -28 v -83 l 1,-112 7,-7 z"
         fill="#f9fbfc"
         id="path3" /><path
         d="m 630.46229,230.40106 h 1 l 1,89 h 2 l 2,2 1,102 3,9 -1,4 -3,2 h -23 l -5,-1 -29,-2 h -30 l -15,2 -16,4 -11,6 -7,6 -5,9 -6,1 -9,-3 h -10 l -7,3 h -6 l -7,-10 -7,-7 -13,-6 -5,-2 -16,-3 h -45 l -4,1 -17,1 h -30 l -2,-2 1,-7 2,-18 4,-1 v 5 l 4,-1 7,-4 6,-1 h 42 l 23,3 18,5 16,6 15,8 12,11 1,5 -4,3 1,7 9,-3 h 15 l 5,2 h 4 l 1,-5 -4,-4 2,-5 7,-7 15,-10 17,-7 20,-6 19,-3 h 45 l 9,1 7,4 z m 3,92 z"
         fill="#1f4b79"
         id="path5" /><path
         d="m 381.46229,249.40106 h 4 l 1,5 -1,11 v 31 l 5,13 8,15 8,11 10,13 11,14 11,14 11,16 9,16 3,9 -1,2 h -2 l -4,-5 -9,-7 -5,-5 -3,-1 v -2 l -5,-2 -5,-3 -4,-4 -6,-3 -13,-8 -2,-1 v -2 l -7,-2 v -2 l -5,-1 -4,-3 -7,-3 -5,-5 -3,-4 -2,-9 v -28 l 2,-33 2,-15 1,-14 2,-6 z"
         fill="#f8ebd8"
         id="path6" /><path
         d="m 574.46229,248.40106 h 5 l 2,4 2,37 1,28 v 26 l -2,10 -4,9 -5,2 v 2 l -10,6 -12,6 -5,4 -6,3 -3,3 -5,2 -8,6 h -2 v 2 l -4,2 h -3 v 3 l -4,2 -5,5 -5,5 -2,4 -5,4 -4,4 -1,-4 9,-17 11,-18 10,-13 9,-11 13,-16 10,-13 10,-15 7,-14 5,-14 v -31 l -1,-12 z"
         fill="#f9ebd8"
         id="path7" /><path
         d="m 335.46229,408.40106 h 42 l 23,3 18,5 16,6 15,8 12,11 1,5 -4,3 1,7 9,-3 h 15 v 1 l -7,1 1,4 -10,2 -4,2 h -6 l -7,-10 -7,-7 -13,-6 -5,-2 -16,-3 h -45 l -4,1 -17,1 h -30 l -2,-2 1,-7 2,-18 4,-1 v 5 l 4,-1 7,-4 z"
         fill="#214e7b"
         id="path8" /><path
         d="m 590.46229,212.40106 h 30 l 8,4 6,7 3,6 v 11 h 15 l 8,8 7,8 -1,8 -2,2 -1,109 h -1 l -1,-115 -7,-7 -3,-5 -14,-1 v 176 h -1 l -1,-101 -1,-3 -3,1 -1,93 -2,-1 v -185 l -4,-5 -7,-3 h -25 l -18,4 h -3 l -1,-6 9,-3 z m 43,110 z"
         fill="#36608a"
         id="path9" /><path
         d="m 575.46229,414.40106 h 32 l 17,3 7,8 2,3 v 3 h -20 l -26,-2 h -44 l -14,2 -18,6 -9,6 h -3 l 5,-6 13,-8 10,-5 15,-5 20,-4 z"
         fill="#f3f7f9"
         id="path10" /><path
         d="m 341.46229,414.40106 h 33 l 29,4 20,6 17,8 10,7 2,4 -5,-2 -14,-7 -16,-4 -5,-1 h -51 l -26,2 h -18 l 4,-7 6,-7 8,-2 z"
         fill="#f3f6f9"
         id="path11" /><path
         d="m 668.46229,420.40106 h 1 v 41 l -2,1 h -18 l -30,-1 -16,-1 h -43 l -18,3 -6,1 v -2 l 2,-1 -3,-2 v 2 l -2,1 h -6 l 3,-3 14,-4 15,-2 h 54 l 50,2 v 1 h -18 l 1,3 22,1 z"
         fill="#2a567e"
         id="path12" /><path
         d="m 630.46229,230.40106 h 1 l 1,89 h 2 l 2,2 1,102 2,8 -5,1 -7,-11 -3,-3 1,-5 5,1 z m 3,92 z"
         fill="#114476"
         id="path13" /><path
         d="m 281.46229,354.40106 h 1 l 1,11 3,1 v 90 h 31 l 3,3 -1,1 -14,1 -4,1 h -19 l -2,-2 v -47 z"
         fill="#1b4c7e"
         id="path14" /><path
         d="m 475.46229,255.40106 3,1 11,16 -1,5 -11,17 h -3 l -9,-15 -2,-4 1,-5 7,-10 z"
         fill="#f8fbfb"
         id="path15" /><path
         d="m 287.46229,276.40106 h 1 v 96 l -1,83 49,-2 h 53 v 1 l -23,1 -7,1 v 2 h 20 v 1 l -36,1 -20,1 h -18 v -1 l 14,-1 -3,-2 -30,-1 v -90 z"
         fill="#4a6c8e"
         id="path16" /><path
         d="m 317.46229,409.40106 h 1 v 5 l 4,-1 7,-4 h 18 v 2 h 4 v 2 l -22,4 -5,4 -7,11 h 21 l 3,3 -8,2 h -20 l -2,-2 1,-7 2,-18 z"
         fill="#134879"
         id="path17" /><path
         d="m 663.46229,327.40106 h 1 l 1,80 1,11 1,-51 h 1 v 93 h -22 l -3,-2 h 2 v -2 h 18 z"
         fill="#154471"
         id="path18" /><path
         d="m 590.46229,212.40106 h 30 l 8,4 1,2 -8,1 h -29 l -18,4 h -3 l -1,-6 9,-3 z"
         fill="#27537c"
         id="path19" /><path
         d="m 668.46229,420.40106 h 1 v 41 l -2,1 h -18 l -30,-1 -16,-1 v -1 l 15,-1 3,-4 h 19 l 23,1 v 1 h -18 l 1,3 22,1 z"
         fill="#325a82"
         id="path20" /><path
         d="m 569.46229,408.40106 h 45 l 9,1 7,4 -3,1 h -2 l -2,3 v -2 l -7,-1 -39,-1 -6,-1 v -2 h -2 z"
         fill="#21507c"
         id="path21" /><path
         d="m 568.46229,454.40106 h 53 l -2,5 h -24 l -24,-1 -4,-1 z"
         fill="#134775"
         id="path22" /><path
         d="m 385.46229,262.40106 5,1 v 30 l -5,2 -1,-2 v -28 z"
         fill="#0f4476"
         id="path23" /><path
         d="m 667.46229,257.40106 h 1 v 110 h -1 v -8 h -2 v -35 h 2 z"
         fill="#3e618e"
         id="path24" /><path
         d="m 331.46229,212.40106 h 30 l 3,2 h -5 v 2 l -18,2 h -10 l -5,-4 z"
         fill="#1a4a78"
         id="path25" /><path
         d="m 366.46229,454.40106 h 31 l 6,1 v 1 h -7 l -1,3 h -16 l -20,-1 v -2 z"
         fill="#164973"
         id="path26" /><path
         d="m 567.46229,259.40106 2,4 v 7 h 2 v 8 h 2 v 13 l -2,6 -2,8 -2,-2 -1,-6 3,-2 -1,-5 -1,-2 z"
         fill="#11477a"
         id="path27" /><path
         d="m 482.46229,424.40106 h 2 v 5 3 l -3,11 h -2 l -1,-2 -3,1 -2,3 -2,-1 -2,-8 1,-5 2,-2 2,1 2,6 4,-9 h 2 z m -4,15 z"
         fill="#17497b"
         id="path28" /><path
         d="m 329.46229,219.40106 4,1 -5,5 -5,5 -1,113 h -1 v -115 l 3,-5 z"
         fill="#d4e5f4"
         id="path29" /><path
         d="m 561.46229,409.40106 h 8 l 2,1 v 2 l 45,1 7,2 v 2 l -16,-2 h -39 l -6,-2 h -15 l 3,-2 z"
         fill="#2b5481"
         id="path30" /><path
         d="m 313.46229,429.40106 h 3 v 3 h 22 l 3,3 -8,2 h -20 l -1,-5 z"
         fill="#0f4174"
         id="path31" /><path
         d="m 374.46229,410.40106 h 11 l 11,2 12,1 v 4 l -19,-1 -7,-1 -7,-2 z"
         fill="#134878"
         id="path32" /><path
         d="m 559.46229,453.40106 h 54 v 1 l -45,1 -1,2 28,1 v 1 h -27 l -9,-2 -5,-2 v -1 z"
         fill="#355a84"
         id="path33" /><path
         d="m 569.46229,409.40106 h 37 l -3,3 -8,1 h -18 l -6,-1 v -2 z"
         fill="#114877"
         id="path34" /><path
         d="m 655.46229,244.40106 5,4 7,8 -1,8 -3,2 v -7 l -4,-1 -7,-8 2,-1 z"
         fill="#144875"
         id="path35" /><path
         d="m 301.46229,456.40106 h 16 l 3,3 -1,1 -14,1 h -14 l -2,-1 v -2 l 2,-1 z"
         fill="#134471"
         id="path36" /><path
         d="m 494.46229,400.40106 h 5 v 6 l -5,9 -6,1 -1,-6 5,-9 z"
         fill="#144473"
         id="path37" /><path
         d="m 413.46229,429.40106 10,1 12,4 v 7 l -16,-4 -7,-1 v -1 l 8,-1 1,-2 -8,-2 z"
         fill="#2c5683"
         id="path38" /><path
         d="m 336.46229,453.40106 h 53 v 1 l -23,1 -7,1 v 2 h 20 v 1 h -32 v -1 l 8,-1 v -3 h -19 z"
         fill="#365a84"
         id="path39" /><path
         d="m 489.46229,488.40106 4,1 -2,4 -6,2 h -16 l -4,-2 v -3 l 15,1 9,-1 z"
         fill="#114576"
         id="path40" /><path
         d="m 333.46229,454.40106 h 22 l 1,3 -1,1 -8,1 h -24 v -1 l 11,-1 z"
         fill="#0f4576"
         id="path41" /><path
         d="m 469.46229,417.40106 2,3 2,10 -3,2 1,12 h 2 l 4,-4 2,1 v 2 h 2 l -1,4 h -8 l -2,-2 -4,-13 2,-8 1,-3 z m 9,22 z"
         fill="#22517f"
         id="path42" /><path
         d="m 525.46229,425.40106 2,1 -4,2 v 2 l 4,2 -13,4 -11,6 -4,2 4,-6 10,-7 z"
         fill="#e0ecf5"
         id="path43" /><path
         d="m 522.46229,432.40106 h 4 v 2 l -12,3 v 3 l 2,2 -10,6 -3,1 1,-9 12,-6 z"
         fill="#26527f"
         id="path44" /><path
         d="m 535.46229,355.40106 1,4 -3,5 v 2 l -9,6 -3,6 -6,8 -5,2 7,-11 7,-8 z"
         fill="#dadce0"
         id="path45" /><path
         d="m 545.46229,225.40106 h 2 l 1,3 -5,1 -1,4 -8,5 -3,-1 -1,-5 9,-6 z"
         fill="#0e4676"
         id="path46" /><path
         d="m 551.46229,412.40106 h 14 v 2 l 3,1 -11,2 -15,1 1,-4 z"
         fill="#104776"
         id="path47" /><path
         d="m 435.46229,435.40106 9,3 6,4 -3,3 -1,4 -5,-4 -6,-3 -1,-4 z"
         fill="#26527b"
         id="path48" /><path
         d="m 475.46229,454.40106 h 10 l 5,3 5,-1 v 4 l -7,1 -11,-2 -2,-2 z"
         fill="#0d3f74"
         id="path49" /><path
         d="m 610.46229,213.40106 h 7 l 10,2 2,3 -8,1 -15,-2 -3,-1 v -2 z"
         fill="#114872"
         id="path50" /><path
         d="m 666.46229,431.40106 h 1 l 1,5 v 24 h -5 l 1,-3 1,-25 z"
         fill="#0d447e"
         id="path51" /><path
         d="m 561.46229,216.40106 6,1 v 7 l -1,1 -1,9 -2,2 v -13 h -9 v 2 l -2,-1 1,-2 4,-2 z m 0,2 1,2 3,-1 z"
         fill="#0f4577"
         id="path52" /><path
         d="m 562.46229,429.40106 h 28 v 1 h -11 l -1,3 h -14 z"
         fill="#124471"
         id="path53" /><path
         d="m 541.46229,335.40106 1,2 -3,6 4,1 -1,-4 h 3 l 1,3 -5,5 -1,-2 -6,2 -5,5 -2,-1 12,-14 z"
         fill="#21517c"
         id="path54" /><path
         d="m 420.46229,461.40106 7,1 4,2 v 3 l 2,1 -1,1 h -6 l -7,-3 z"
         fill="#1b4c7b"
         id="path55" /><path
         d="m 494.46229,441.40106 2,1 v 2 l 7,2 -1,5 -5,1 v 3 h -2 v -8 h -2 l -1,-4 z m 9,4 z"
         fill="#13467b"
         id="path56" /><path
         d="m 390.46229,277.40106 h 1 l 1,15 1,6 h -4 l 1,8 1,5 -3,-4 -4,-11 1,-3 v 2 l 5,-2 z"
         fill="#2d5782"
         id="path57" /><path
         d="m 458.46229,487.40106 7,1 5,1 v 1 h -5 v 3 l 16,2 v 1 h -13 l -10,-3 -1,-3 -2,-2 z"
         fill="#29587e"
         id="path58" /><path
         d="m 513.46229,373.40106 2,2 -1,5 h -3 v 5 h -2 v 3 l -4,2 h -3 l 2,-5 4,-5 3,-5 z"
         fill="#0e477b"
         id="path59" /><path
         d="m 325.46229,214.40106 6,3 5,1 v 1 l -7,1 -4,3 v -2 l -5,1 -1,2 h -2 l 2,-5 z"
         fill="#1f537c"
         id="path60" /><path
         d="m 446.46229,443.40106 h 4 v 2 l 6,-1 -1,5 2,5 -1,4 h -1 v -6 h -3 v -2 l -5,-1 z"
         fill="#114879"
         id="path61" /><path
         d="m 550.46229,455.40106 h 8 l 3,2 7,1 v 1 l -8,1 h -13 v -3 z"
         fill="#12416e"
         id="path62" /><path
         d="m 426.46229,355.40106 5,2 4,2 v 7 l -3,3 -3,-5 z m 0,3 z"
         fill="#144878"
         id="path63" /><path
         d="m 283.46229,257.40106 2,1 2,1 v 14 l -4,4 z"
         fill="#144574"
         id="path64" /><path
         d="m 530.46229,417.40106 2,1 -4,2 v 2 l 9,-1 -3,2 -10,3 -6,-3 4,-3 z"
         fill="#305d84"
         id="path65" /><path
         d="m 551.46229,335.40106 1,3 -3,5 -2,4 h -2 l -2,4 -5,4 -2,-1 13,-16 z"
         fill="#e1e2e1"
         id="path66" /><path
         d="m 285.46229,455.40106 16,1 v 1 l -12,1 v 2 l 12,1 v 1 h -19 l -1,-2 h 5 z"
         fill="#28527c"
         id="path67" /><path
         d="m 638.46229,431.40106 2,1 -1,4 -3,2 h -23 l 3,-2 h 21 z"
         fill="#4a6b8e"
         id="path68" /><path
         d="m 655.46229,244.40106 5,4 v 7 l 1,4 -7,-6 -2,-4 h 2 z"
         fill="#27527e"
         id="path69" /><path
         d="m 383.46229,217.40106 8,1 -1,6 -5,1 -10,-3 v -1 h 9 z"
         fill="#2e5b8a"
         id="path70" /><path
         d="m 564.98176,217.20582 8,1 -1,6 -5,1 -10,-3 v -1 h 9 z"
         fill="#2e5b8a"
         id="path70-4" /><path
         d="m 468.46229,453.40106 h 15 v 1 l -7,1 1,4 h -5 l -1,-2 -9,-1 2,-2 z"
         fill="#2c5580"
         id="path71" /><path
         d="m 437.46229,431.40106 11,6 4,4 v 2 l -5,-2 -10,-5 v -3 z"
         fill="#dce9f1"
         id="path72" /><path
         d="m 572.46229,249.40106 h 5 l 2,7 -3,2 -2,-1 -1,4 z"
         fill="#e4ddd2"
         id="path73" /><path
         d="m 462.46229,456.40106 h 9 l 1,3 -7,2 h -7 l 2,-1 v -2 h 2 z"
         fill="#184979"
         id="path74" /><path
         d="m 566.46229,288.40106 h 2 l 2,4 -1,4 -2,1 -4,7 -2,-1 z"
         fill="#285785"
         id="path75" /><path
         d="m 456.46229,406.40106 3,4 2,7 -1,2 h -2 l -4,-7 z"
         fill="#ece6d9"
         id="path76" /><path
         d="m 636.46229,241.40106 h 16 l -2,3 h -6 l -1,1 h -6 z"
         fill="#0e4074"
         id="path77" /><path
         d="m 372.46229,216.40106 11,1 2,5 -9,-1 -4,-3 z"
         fill="#0b467a"
         id="path78" /><path
         d="m 562.46229,214.40106 h 5 l 2,3 -1,4 -1,-4 -3,1 -3,-1 -5,3 -4,-1 z m -1,4 4,1 -3,1 z"
         fill="#2d5880"
         id="path79" /><path
         d="m 320.46229,458.40106 23,1 v 1 l -20,1 h -18 v -1 l 14,-1 z"
         fill="#395d7f"
         id="path80" /><path
         d="m 535.46229,355.40106 1,4 -3,5 v 2 l -7,4 2,-6 z"
         fill="#e4e5e2"
         id="path81" /><path
         d="m 506.37285,333.86539 1,4 -3,5 v 2 l -7,4 2,-6 z"
         fill="#e4e5e2"
         id="path81-2" /><path
         d="m 295.46229,242.40106 1,2 -2,5 3,2 -5,6 -2,-4 v -5 z"
         fill="#295781"
         id="path82" /><path
         d="m 459.46229,396.40106 3,3 3,8 -5,1 -3,-9 h 2 z"
         fill="#1b4f82"
         id="path83" /><path
         d="m 475.46229,454.40106 h 10 l 3,2 -5,1 -1,3 -7,-2 v -3 z"
         fill="#1b4777"
         id="path84" /><path
         d="m 448.46229,434.40106 7,1 2,3 -4,3 -4,-2 -2,-4 z"
         fill="#1c4673"
         id="path85" /><path
         d="m 329.46229,409.40106 4,1 -3,1 -1,3 6,1 v 1 l -8,1 v -3 l -6,1 4,-4 z"
         fill="#2a527d"
         id="path86" /><path
         d="m 301.46229,456.40106 h 2 l -1,4 h -13 v -2 l 2,-1 z"
         fill="#0c477a"
         id="path87" /><path
         d="m 408.46229,414.40106 h 2 l 1,6 -8,-1 -12,-2 v -1 h 9 l 8,1 z"
         fill="#315a81"
         id="path88" /><path
         d="m 581.46229,214.40106 h 9 l 5,1 1,3 h -10 v -2 l -5,-1 z"
         fill="#124570"
         id="path89" /><path
         d="m 492.46229,485.40106 2,1 -2,3 -3,-1 v 2 l -11,2 -6,-1 v -1 l 13,-2 z"
         fill="#365d86"
         id="path90" /><path
         d="m 515.46229,423.40106 h 3 v 2 l -12,7 -2,1 -2,-2 z"
         fill="#2f547b"
         id="path91" /><path
         d="m 508.46229,473.40106 4,1 v 5 h -6 v 2 l -3,-1 4,-6 z"
         fill="#1a4a7b"
         id="path92" /><path
         d="m 472.46229,426.40106 h 2 l 1,4 h 2 l 1,-3 2,1 -3,8 -2,1 z"
         fill="#d2e3ee"
         id="path93" /><path
         d="m 495.46229,411.40106 1,4 -2,5 -2,6 -2,1 -1,-4 z"
         fill="#e3e3e2"
         id="path94" /><path
         d="m 389.46229,297.40106 4,1 -2,10 -2,-2 -1,-8 z"
         fill="#0d477b"
         id="path95" /><path
         d="m 579.46229,214.40106 7,2 v 2 h 6 v 1 h -13 v -2 l -2,-1 z"
         fill="#1a4a7b"
         id="path96" /><path
         d="m 435.46229,425.40106 h 5 l 1,3 -1,2 h -6 l -2,-1 v -2 z"
         fill="#1b4976"
         id="path97" /><path
         d="m 537.46229,227.40106 2,1 -5,7 v 3 l -3,-1 -1,-5 z"
         fill="#2f5381"
         id="path98" /><path
         d="m 329.46229,219.40106 4,1 -5,5 -5,5 -1,-4 5,-5 z"
         fill="#e4edf4"
         id="path99" /><path
         d="m 603.46229,413.40106 h 13 l 7,2 v 2 l -20,-3 z"
         fill="#3a6089"
         id="path100" /><path
         d="m 512.46229,371.40106 1,2 -4,7 -6,8 h -2 l 2,-5 4,-5 z"
         fill="#335c85"
         id="path101" /><path
         d="m 542.46229,335.40106 h 2 l 1,3 h 2 l -1,4 -1,-2 -2,1 v 3 l -4,-1 1,-4 z"
         fill="#104478"
         id="path102" /><path
         d="m 398.46229,319.40106 h 2 l 2,2 h 2 l -1,7 h -3 l -2,-5 z"
         fill="#10487d"
         id="path103" /><path
         d="m 535.46229,459.40106 5,2 -4,1 v 2 h -11 l 2,-2 8,-1 z"
         fill="#0f4578"
         id="path104" /><path
         d="m 508.46229,434.40106 2,1 v 3 l -8,5 h -3 l 5,-6 z"
         fill="#cadeec"
         id="path105" /><path
         d="m 435.46229,435.40106 5,2 1,5 -7,-2 z"
         fill="#194a73"
         id="path106" /><path
         d="m 542.46229,413.40106 4,1 -3,1 -1,3 9,-1 -4,2 -9,2 1,-7 z"
         fill="#315981"
         id="path107" /><path
         d="m 565.46229,313.40106 h 1 l -1,7 -7,8 v -3 z"
         fill="#d7dee3"
         id="path108" /><path
         d="m 326.46229,214.40106 h 10 l -1,3 h 6 v 1 h -10 z"
         fill="#13466f"
         id="path109" /><path
         d="m 525.46229,425.40106 2,1 -4,2 v 2 l 4,2 -9,2 v -2 h 2 l -1,-4 z"
         fill="#d7e3ed"
         id="path110" /><path
         d="m 455.46229,395.40106 4,1 v 3 h -2 l 2,3 v 5 l -2,-3 -1,-5 -3,-1 z"
         fill="#07457b"
         id="path111" /><path
         d="m 571.46229,218.40106 h 6 v 2 l 3,1 -9,2 z"
         fill="#184f76"
         id="path112" /><path
         d="m 431.46229,465.40106 5,3 v 3 l -3,-1 v 3 l -4,-2 -1,-2 4,-1 z"
         fill="#2b547d"
         id="path113" /><path
         d="m 516.46229,441.40106 h 2 l -1,3 -10,5 -2,-1 9,-6 z"
         fill="#e0eff9"
         id="path114" /><path
         d="m 471.46229,429.40106 2,1 v 8 l -3,2 -1,-8 z"
         fill="#0d4579"
         id="path115" /><path
         d="m 313.46229,429.40106 h 3 l 3,5 v 2 h -5 l -1,-1 z"
         fill="#023f7c"
         id="path116" /><path
         d="m 431.46229,421.40106 7,3 -4,3 -4,1 -5,-2 4,-1 3,1 z"
         fill="#2f5780"
         id="path117" /><path
         d="m 492.46229,401.40106 2,3 -1,5 h -4 v 3 h -2 l 2,-5 z"
         fill="#265383"
         id="path119" /><path
         d="m 501.46229,401.40106 h 1 l 1,7 -3,2 -2,-1 v 2 h -2 l 2,-5 z"
         fill="#e3e4dc"
         id="path120" /><path
         d="m 549.46229,456.40106 4,1 -1,2 h 8 v 1 h -13 v -3 z"
         fill="#184576"
         id="path121" /><path
         d="m 489.46229,409.40106 h 3 l 2,6 -6,1 -1,-4 h 2 z"
         fill="#11487d"
         id="path122" /><path
         d="m 519.46229,362.40106 2,3 -1,5 -5,-1 v 2 l -2,-1 z"
         fill="#285285"
         id="path123" /><path
         d="m 420.46229,461.40106 7,1 1,2 -9,1 z"
         fill="#154771"
         id="path125" /><path
         d="m 411.46229,420.40106 12,1 v 2 l 3,1 -3,1 -12,-4 z"
         fill="#3c6086"
         id="path126" /><path
         d="m 453.46229,399.40106 h 3 l 2,5 v 3 h 2 l 1,4 -3,-1 z"
         fill="#1c486b"
         id="path127" /><path
         d="m 409.46229,224.40106 6,1 v 2 h 2 l -1,3 h -5 l -1,-2 h 2 v -2 l -3,-1 z"
         fill="#10457a"
         id="path128" /><path
         d="m 633.46229,425.40106 5,3 1,3 -5,1 -2,-6 z"
         fill="#0e3f6c"
         id="path129" /><path
         d="m 616.46229,409.40106 h 7 l 7,4 -3,1 -5,-1 v -2 l -6,-1 z"
         fill="#275583"
         id="path130" /><path
         d="m 320.46229,218.40106 1,2 8,-1 -4,4 v -2 l -5,1 -1,2 h -2 l 2,-5 z"
         fill="#31567a"
         id="path132" /><path
         d="m 484.46229,435.40106 h 1 l 1,6 -3,3 -2,4 -1,-3 z"
         fill="#d9eaf0"
         id="path133" /><path
         d="m 542.46229,229.40106 1,3 -6,4 h -5 l 2,-1 1,-3 h 6 z"
         fill="#204973"
         id="path134" /><path
         d="m 496.46229,483.40106 3,1 -1,4 -5,1 1,-5 z"
         fill="#184b7c"
         id="path135" /><path
         d="m 440.46229,437.40106 4,2 -1,4 h -6 l -2,-2 6,1 z"
         fill="#345b86"
         id="path136" /><path
         d="m 509.46229,443.40106 3,1 -7,5 h -2 l 1,-5 z"
         fill="#315882"
         id="path138" /><path
         d="m 665.46229,255.40106 2,2 -1,7 -3,2 v -7 z"
         fill="#1f507f"
         id="path140" /><path
         d="m 508.46229,478.40106 h 3 l -2,4 -4,2 1,-5 z"
         fill="#2c5180"
         id="path142" /><path
         d="m 494.46229,456.40106 1,4 -6,1 1,-4 z"
         fill="#06407d"
         id="path143" /><path
         d="m 538.46229,430.40106 h 5 l -3,2 h -2 l 1,3 h -8 l 4,-2 z"
         fill="#11426d"
         id="path144" /><path
         d="m 529.46229,430.40106 h 9 l -3,3 -8,-1 z m 5,3 z"
         fill="#345980"
         id="path145" /><path
         d="m 517.46229,429.40106 4,1 -1,2 h -2 v 2 l -4,-1 1,-3 z"
         fill="#eef6f8"
         id="path146" /><path
         d="m 514.46229,379.40106 2,1 -6,8 -1,-3 h 2 v -5 z"
         fill="#2a4f7a"
         id="path147" /><path
         d="m 496.02968,337.88014 2,1 -6,8 -1,-3 h 2 v -5 z"
         fill="#2a4f7a"
         id="path147-2" /><path
         d="m 574.46229,288.40106 h 1 v 9 h -2 l -1,3 -1,-2 z"
         fill="#dadfe0"
         id="path148" /><path
         d="m 385.46229,254.40106 h 2 l 1,9 -3,-1 z"
         fill="#295782"
         id="path149" /><path
         d="m 355.46229,213.40106 h 9 v 1 h -5 v 2 h -6 z"
         fill="#0d4671"
         id="path150" /><path
         d="m 462.46229,457.40106 4,1 -3,3 h -5 l 2,-1 v -2 z"
         fill="#084576"
         id="path151" /><path
         d="m 478.46229,443.40106 h 3 l -1,4 h -8 l 4,-2 z"
         fill="#44698d"
         id="path152" /><path
         d="m 516.46229,425.40106 v 3 h -2 v 3 h -4 l 2,-4 z"
         fill="#0f457b"
         id="path153" /><path
         d="m 401.46229,315.40106 4,5 1,3 -5,-2 z"
         fill="#2c5782"
         id="path154" /><path
         d="m 565.46229,300.40106 h 2 l 1,4 -2,2 -4,-2 z"
         fill="#0c4c84"
         id="path155" /><path
         d="m 451.46229,484.40106 h 5 l -1,4 -4,1 z"
         fill="#144770"
         id="path156" /><path
         d="m 417.46229,418.40106 6,1 2,3 -2,1 v -2 h -5 z"
         fill="#11447c"
         id="path157" /><path
         d="m 533.46229,345.40106 1,3 -5,5 -2,-1 z"
         fill="#315d82"
         id="path158" /><path
         d="m 393.46229,316.40106 h 2 v 2 l 3,1 1,6 -3,-3 z m 5,2 z"
         fill="#27517c"
         id="path159" /><path
         d="m 542.46229,462.40106 4,1 -3,2 h -8 l 4,-2 z"
         fill="#d5e9f1"
         id="path161" /><path
         d="m 409.46229,462.40106 h 10 v 3 l -7,-1 z"
         fill="#366387"
         id="path162" /><path
         d="m 415.46229,432.40106 h 4 l -1,3 -7,-1 z"
         fill="#104371"
         id="path163" /><path
         d="m 441.46229,426.40106 3,2 -4,4 -4,-2 h 4 z"
         fill="#2d5484"
         id="path164" /><path
         d="m 423.46229,418.40106 8,3 -4,1 h -3 z"
         fill="#264c7a"
         id="path165" /><path
         d="m 495.46229,411.40106 1,4 -2,5 -2,-1 2,-6 z"
         fill="#d5dad4"
         id="path166" /><path
         d="m 555.46229,414.40106 7,1 v 1 l -11,1 1,-2 z"
         fill="#214e74"
         id="path167" /><path
         d="m 452.46229,385.40106 1,4 -4,2 -1,-5 z"
         fill="#10477f"
         id="path168" /><path
         d="m 446.46229,379.40106 3,1 -2,4 -3,-1 z"
         fill="#114783"
         id="path169" /><text
         xml:space="preserve"
         style="font-style:normal;font-variant:normal;font-weight:normal;font-stretch:normal;font-size:107.364px;font-family:Algerian;-inkscape-font-specification:'Algerian, Normal';font-variant-ligatures:normal;font-variant-caps:normal;font-variant-numeric:normal;font-variant-east-asian:normal;text-align:start;writing-mode:lr-tb;direction:ltr;text-anchor:start;fill:#144676;fill-opacity:1;stroke:#1f6eb7;stroke-width:13.5262;stroke-opacity:1"
         x="409.57019"
         y="479.0192"
         id="text1"
         transform="scale(1.0821923,0.92405019)"><tspan
           sodipodi:role="line"
           id="tspan1"
           x="409.57019"
           y="479.0192"
           style="font-style:normal;font-variant:normal;font-weight:normal;font-stretch:normal;font-size:107.364px;font-family:Algerian;-inkscape-font-specification:'Algerian, Normal';font-variant-ligatures:normal;font-variant-caps:normal;font-variant-numeric:normal;font-variant-east-asian:normal;fill:#144776;fill-opacity:1;stroke:#1f6eb7;stroke-width:13.5262;stroke-opacity:1" /></text><text
         xml:space="preserve"
         style="font-style:normal;font-variant:normal;font-weight:normal;font-stretch:normal;font-size:111.361px;font-family:Chiller;-inkscape-font-specification:'Chiller, Normal';font-variant-ligatures:normal;font-variant-caps:normal;font-variant-numeric:normal;font-variant-east-asian:normal;text-align:start;writing-mode:lr-tb;direction:ltr;text-anchor:start;fill:#144776;fill-opacity:1;stroke:#1f6eb7;stroke-width:1.56809;stroke-opacity:1"
         x="487.40808"
         y="380.02936"
         id="text2"
         transform="scale(1.0378994,0.96348451)"><tspan
           sodipodi:role="line"
           id="tspan2"
           x="487.40808"
           y="380.02936"
           style="font-style:normal;font-variant:normal;font-weight:normal;font-stretch:normal;font-size:111.361px;font-family:Chiller;-inkscape-font-specification:'Chiller, Normal';font-variant-ligatures:normal;font-variant-caps:normal;font-variant-numeric:normal;font-variant-east-asian:normal;stroke-width:1.56809" /></text><text
         xml:space="preserve"
         style="font-style:normal;font-variant:normal;font-weight:normal;font-stretch:normal;font-size:111.361px;font-family:Chiller;-inkscape-font-specification:'Chiller, Normal';font-variant-ligatures:normal;font-variant-caps:normal;font-variant-numeric:normal;font-variant-east-asian:normal;text-align:start;writing-mode:lr-tb;direction:ltr;text-anchor:start;fill:#144776;fill-opacity:1;stroke:#1f6eb7;stroke-width:1.51181;stroke-opacity:1"
         x="455.53366"
         y="320.59924"
         id="text3"><tspan
           sodipodi:role="line"
           id="tspan3"
           x="455.53366"
           y="320.59924" /></text><text
         xml:space="preserve"
         style="font-style:normal;font-variant:normal;font-weight:normal;font-stretch:normal;font-size:109.024px;font-family:'Gill Sans MT';-inkscape-font-specification:'Gill Sans MT, Normal';font-variant-ligatures:normal;font-variant-caps:normal;font-variant-numeric:normal;font-variant-east-asian:normal;text-align:start;writing-mode:lr-tb;direction:ltr;text-anchor:start;fill:#144776;fill-opacity:1;stroke:#12406b;stroke-width:1.44516;stroke-opacity:1"
         x="450.25592"
         y="313.33368"
         id="text4"
         transform="scale(0.97030131,1.0306077)"><tspan
           sodipodi:role="line"
           id="tspan4"
           x="450.25592"
           y="313.33368"
           style="fill:#144776;fill-opacity:1;stroke:#12406b;stroke-width:1.44516;stroke-opacity:1">{</tspan></text><text
         xml:space="preserve"
         style="font-style:normal;font-variant:normal;font-weight:normal;font-stretch:normal;font-size:109.024px;font-family:'Gill Sans MT';-inkscape-font-specification:'Gill Sans MT, Normal';font-variant-ligatures:normal;font-variant-caps:normal;font-variant-numeric:normal;font-variant-east-asian:normal;text-align:start;writing-mode:lr-tb;direction:ltr;text-anchor:start;fill:#144776;fill-opacity:1;stroke:#11426e;stroke-width:1.51536;stroke-opacity:1"
         x="-525.28009"
         y="319.67462"
         id="text4-6"
         transform="scale(-0.98926675,1.0108497)"><tspan
           sodipodi:role="line"
           id="tspan4-1"
           x="-525.28009"
           y="319.67462"
           style="font-style:normal;font-variant:normal;font-weight:normal;font-stretch:normal;font-size:109.024px;font-family:'Gill Sans MT';-inkscape-font-specification:'Gill Sans MT, Normal';font-variant-ligatures:normal;font-variant-caps:normal;font-variant-numeric:normal;font-variant-east-asian:normal;stroke:#11426e;stroke-width:1.51536;stroke-opacity:1">{</tspan></text><text
         xml:space="preserve"
         style="font-style:normal;font-variant:normal;font-weight:normal;font-stretch:normal;font-size:114.052px;font-family:'Gill Sans MT';-inkscape-font-specification:'Gill Sans MT, Normal';font-variant-ligatures:normal;font-variant-caps:normal;font-variant-numeric:normal;font-variant-east-asian:normal;text-align:start;writing-mode:lr-tb;direction:ltr;text-anchor:start;fill:#144776;fill-opacity:1;stroke:#11426e;stroke-width:1.51181;stroke-opacity:1"
         x="501.18332"
         y="364.07913"
         id="text5"><tspan
           sodipodi:role="line"
           id="tspan5" /></text></g></g></svg>
